<svg width="2625" height="2625" viewBox="0 0 2625 2625" fill="none" xmlns="http://www.w3.org/2000/svg">
<path fill-rule="evenodd" clip-rule="evenodd" d="M875.761 440L1312.5 694.648L1735.55 447.601L1736.81 940.419L1765.64 940.766L1767.14 433.986L2190.66 673.395L2193.53 1691.21L1767.53 1929.43L1767.14 1411.85L1312.5 1676.43V2199.09L873.683 2448.81L435.626 2194.42L437.227 1704.57L882.52 1959.95L895.707 1934.51L453.543 1677.53L876.3 1430.83L875.762 440H875.761Z" fill="black"/>
<path fill-rule="evenodd" clip-rule="evenodd" d="M1325.94 1699.74L1738.95 1938.75ZM1737.67 1458.72C1737.86 1458.61 1738.09 1458.61 1738.28 1458.72C1738.47 1458.83 1738.58 1459.03 1738.58 1459.24L1738.95 1938.75L1737.37 1460.3L1325.94 1699.74L1738.28 1458.72L1738.95 1938.75L1325.94 1699.74" fill="black"/>
<path fill-rule="evenodd" clip-rule="evenodd" d="M1312.5 664.268L889.076 417.383L1312.31 171.925L1735.55 417.221" fill="black"/>
</svg>
