<?xml version="1.0" encoding="UTF-8" standalone="no"?><!DOCTYPE svg PUBLIC "-//W3C//DTD SVG 1.1//EN" "http://www.w3.org/Graphics/SVG/1.1/DTD/svg11.dtd"><svg width="100%" height="100%" viewBox="0 0 9000 9000" version="1.1" xmlns="http://www.w3.org/2000/svg" xmlns:xlink="http://www.w3.org/1999/xlink" xml:space="preserve" xmlns:serif="http://www.serif.com/" style="fill-rule:evenodd;clip-rule:evenodd;stroke-linejoin:round;stroke-miterlimit:2;"><path d="M3002.61,1508.57l1497.39,873.081l1450.46,-847.018l4.332,1689.66l98.837,1.19l5.149,-1737.53l1452.05,820.829l9.847,3489.64l-1460.56,816.765l-1.341,-1774.57l-1558.78,907.144l-0,1791.97l-1504.51,856.195l-1501.91,-872.202l5.489,-1679.5l1526.72,875.596l45.213,-87.199l-1515.99,-881.086l1449.45,-845.845l-1.844,-3397.12Z" style="fill:#fdd34a;"/><path id="Main" d="M3002.61,1508.57l1.844,3397.12l-1449.45,845.845l1515.99,881.086l-45.213,87.199l-1526.72,-875.596l-5.489,1679.5l1501.91,872.202l1504.51,-856.195l0,-1791.97l1558.78,-907.144l1.341,1774.57l1460.56,-816.765l-9.847,-3489.64l-1452.05,-820.829l-5.149,1737.53l-98.837,-1.19l-4.332,-1689.66l-1450.46,847.018l-1497.39,-873.081Z" style="fill:none;"/><path id="Bottom-Triangle" serif:id="Bottom Triangle" d="M4546.07,5827.67l1416.03,819.485m-4.374,-1645.83c0.645,-0.375 1.44,-0.377 2.086,-0.006c0.646,0.371 1.045,1.06 1.046,1.805l1.242,1644.03l-5.406,-1640.41l-1410.62,820.926l1413.74,-826.354l2.288,1645.84l-1416.03,-819.485" style="fill:#fdd34a;"/><path d="M4500,2277.49l-1451.74,-846.464l1451.1,-841.568l1451.1,841.013" style="fill:#fdd34a;"/></svg>