<svg width="360" height="361" viewBox="0 0 360 361" fill="none" xmlns="http://www.w3.org/2000/svg">
<path d="M353.875 114.074C344.963 113.083 332.62 100.776 325.486 95.9889C305.332 82.4646 286.36 67.2483 269.129 50.1463C256.179 37.2929 242.308 12.8382 225.179 4.72437C216.274 0.506095 196.104 4.07577 186.907 4.3038C148.488 5.25635 108.691 20.492 73.1419 34.1645C54.5406 41.3189 36.8483 49.2447 18.8879 57.7167C13.3017 60.3517 5.82128 61.2476 5.63978 67.6001C4.83729 95.6874 -4.41932 131.873 16.5747 155.29C19.7295 158.809 25.523 163.214 27.9302 167.066C32.1392 173.8 59.0165 168.03 65.3612 167.486C85.646 165.748 105.039 161.388 125.293 161.388C142.981 161.388 159.958 157.603 177.865 157.603C180.708 157.603 173.578 157.708 173.028 157.813C166.704 159.018 159.402 163.313 153.261 165.594C137.21 171.556 119.449 177.78 104.475 185.992C97.9337 189.579 64.7243 200.653 64.3098 211.016C63.7398 225.266 68.87 239.483 75.2447 252.232C78.2125 258.168 84.5709 274.491 92.6985 274.943C131.916 277.122 164.729 259.326 198.683 242.349C205.135 239.123 213.593 231.32 219.502 239.404C227.62 250.514 237.687 260.442 246.418 271.158C255.482 282.282 260.35 295.83 269.129 307.117C277.402 317.753 291.06 324.369 302.355 331.3C310.986 336.596 318.349 342.905 327.799 346.861C337.192 350.793 349.274 358.217 359.553 358.217" stroke="black" stroke-width="5" stroke-linecap="round"/>
<path d="M177.865 76.2222C177.865 85.5563 182.779 86.2832 192.164 87.5777C196.107 88.1214 217.609 93.3742 217.609 86.5262C217.609 71.3905 190.491 70.5444 179.757 70.5444" stroke="black" stroke-width="5" stroke-linecap="round"/>
<path d="M45.384 184.099C45.6036 186.075 51.2256 195.244 54.0058 195.244C56.0903 195.244 61.1186 180.802 62.4173 178.421C67.3855 169.313 71.2198 175.868 76.6116 181.26C86.9303 191.579 86.6352 183.854 88.8083 171.903C90.2532 163.955 96.6676 170.579 101.32 173.164C108.835 177.339 105.139 175.646 109.732 169.905C111.588 167.584 111.462 172.05 112.676 172.744C115.968 174.625 119.572 176.387 122.98 178.001C128.777 180.747 126.765 168.293 126.765 165.173" stroke="black" stroke-width="5" stroke-linecap="round"/>
<path d="M292.893 271.918C285.996 271.152 279.578 264.376 273.414 261.293C266.081 257.627 257.993 255.415 249.999 253.816C234.668 250.75 226.798 253.199 213.205 261.293C208.047 264.365 164.025 284.479 170.705 295.333C175.793 303.601 184.29 312.325 192.84 317.075C204.114 323.338 193.14 295.508 198.448 297.694C209.913 302.415 223.275 320.058 215.96 296.021C214.504 291.239 211.593 288.779 217.042 286.872C230.914 282.017 244.661 277.017 258.165 271.23C265.831 267.944 284.708 264.402 289.351 273.689" stroke="black" stroke-width="5" stroke-linecap="round"/>
<path d="M215.581 253.816C199.105 253.816 186.192 267.553 171.921 274.312C167.604 276.357 162.612 279.787 158.217 281.043C155.199 281.906 151.841 282.715 149 284.136C146.741 285.265 147.908 291.091 147.908 293.353C147.908 297.129 146.169 316.07 150.637 317.063C154.411 317.901 161.827 302.302 164.038 304.268C164.743 304.894 165.258 308.84 165.918 310.029C167.365 312.633 168.738 312.677 171.376 313.849C175.592 315.723 177.899 316.863 181.745 314.94" stroke="black" stroke-width="5" stroke-linecap="round"/>
</svg>
