<svg width="268" height="360" viewBox="0 0 268 360" fill="none" xmlns="http://www.w3.org/2000/svg">
<path d="M25.0347 203.944C21.2549 193.738 12.8674 187.69 7.30347 178.726C0.241034 167.348 2.2669 144.105 6.51541 132.132C13.2712 113.093 26.6332 97.7906 41.8793 85.9325C54.917 75.7921 64.7829 72.1884 70.2493 55.7895C74.5776 42.8046 72.5272 24.4151 72.909 10.6734C73.1892 0.583549 85.4773 3.5809 92.4133 3.5809C109.818 3.5809 104.825 36.6055 104.825 47.5149C104.825 56.1364 110.232 69.7872 120.783 70.9595C123.777 71.2921 130.519 75.1914 133.195 71.8461C137.299 66.7158 141.167 59.1977 143.44 52.8343C146.626 43.9135 149.857 34.3007 151.025 24.9569C151.878 18.1315 155.027 15.9927 161.171 15.9927C177.309 15.9927 175.825 23.2864 179.296 37.1717C182.91 51.626 182.842 64.9303 182.842 79.9236C182.842 105.47 195.43 111.46 209.439 129.473C223.427 147.456 217.013 175.212 206.78 193.403C201.173 203.372 192.749 211.873 183.828 218.917C171.817 228.398 157.779 229.434 143.046 232.708C132.904 234.961 122.268 234.087 111.918 234.087C104.58 234.087 99.1755 230.54 92.0193 230.54C66.1182 230.54 44.771 220.134 26.8078 202.17" stroke="black" stroke-width="5" stroke-linecap="round"/>
<path d="M67.432 102.011C55.0866 102.011 50.6125 107.948 46.1177 118.981C42.6435 127.508 40.3821 134.031 48.905 138.901C58.9232 144.626 71.5574 145.665 82.27 139.639C94.4311 132.799 106.769 107.857 95.1405 95.7811C88.7738 89.1695 79.3961 90.2066 70.7111 90.2066C63.332 90.2066 61.4053 91.7443 55.6271 94.6334" stroke="black" stroke-width="5" stroke-linecap="round"/>
<path d="M158.919 107.914C158.919 119.166 145.36 142.094 156.788 151.444C165.272 158.386 182.37 162.67 190.645 154.395C194.66 150.38 200.236 148.97 200.236 142.59C200.236 136.914 193.711 132.176 189.907 128.572C181.895 120.982 174.172 111.522 163.346 107.914" stroke="black" stroke-width="5" stroke-linecap="round"/>
<path d="M100.532 138.261C76.0687 138.261 58.1563 163.575 54.4089 185.643C52.9989 193.947 56.3933 198.513 61.3331 205.099C66.8756 212.49 72.3016 214.877 79.7021 219.634C86.3754 223.924 94.0918 225.815 102.077 225.815C111.789 225.815 122.147 226.885 131.662 224.785C142.45 222.403 155.719 216.351 163.364 208.304C171.114 200.146 167.658 184.389 163.135 175.343C160.356 169.785 156.287 164.455 152.606 159.434C148.843 154.303 144.66 150.142 140.703 145.243C136.482 140.017 122.69 136.201 115.982 136.201C108.804 136.201 100.121 137.438 93.3214 135.171" stroke="black" stroke-width="5" stroke-linecap="round"/>
<path d="M72.634 235.491C72.634 269.67 68.0244 306.739 79.131 339.442C80.6096 343.796 81.9481 349.837 87.5048 349.837C92.5173 349.837 97.6376 351.024 98.5497 344.64C99.9676 334.715 101.028 323.467 101.221 313.454C101.384 304.956 101.717 293.227 104.108 285.156C104.767 282.934 108.754 277.635 110.966 277.143C115.367 276.165 119.018 291.375 119.99 295.263C122.879 306.819 120.712 321.149 120.712 332.945C120.712 337.7 117.928 352.548 122.3 356.046C125.976 358.986 134.541 354.796 136.882 351.786C139.609 348.28 142.657 339.549 142.657 335.111C142.657 333.714 140.85 338.445 139.553 337.926C137.24 337.001 140.208 326.616 140.491 324.86C142.896 309.95 143.742 292.082 150.598 278.371C154.162 271.241 157.843 264.547 161.715 257.508C164.126 253.125 167.578 251.198 171.388 248.196C173.926 246.196 174.417 242.749 177.38 239.966C191.297 226.892 215.358 220.937 234.409 223.868C243.061 225.199 245.338 234.429 245.454 241.699C245.723 258.706 248.273 275.693 248.052 292.664C247.906 303.94 246.753 315.133 246.753 326.448C246.753 332.905 245.233 339.221 250.001 343.99C263.424 357.413 264.944 330.604 264.944 322.55C264.944 286.519 262.346 250.805 262.346 214.7C262.346 208.422 258.215 203.233 255.271 197.88C252.096 192.107 251.523 186.288 246.031 182.793C238.154 177.78 234.141 174.419 224.374 174.419C220.671 174.419 215.567 173.3 215.567 178.317" stroke="black" stroke-width="5" stroke-linecap="round"/>
<path d="M210.239 228.669C210.239 253.175 210.239 277.681 210.239 302.187C210.239 308.539 212.059 314.815 212.387 321.044C212.54 323.95 212.523 328.097 213.7 330.712C215.129 333.888 217.31 337.118 219.428 339.842C220.45 341.156 225.276 345.097 225.276 340.916C225.276 336.809 228.499 333.727 228.499 329.638C228.499 326.074 229.573 322.601 229.573 318.896C229.573 287.792 227.425 257.615 227.425 226.521" stroke="black" stroke-width="5" stroke-linecap="round"/>
</svg>
