<svg width="203" height="281" viewBox="0 0 203 281" fill="none" xmlns="http://www.w3.org/2000/svg">
<path d="M2.5 93.5H200.5V191C200.5 239.325 161.325 278.5 113 278.5H90C41.6751 278.5 2.5 239.325 2.5 191V93.5Z" fill="#FFB5F8" stroke="black" stroke-width="5"/>
<path d="M200 94.5C200 99.815 197.61 105.099 192.842 110.152C188.059 115.221 180.997 119.922 172.044 123.936C154.145 131.96 129.206 137 101.5 137C73.7939 137 48.8554 131.96 30.9558 123.936C22.0026 119.922 14.9414 115.221 10.1584 110.152C5.39047 105.099 3 99.815 3 94.5C3 89.185 5.39047 83.9014 10.1584 78.8482C14.9414 73.7789 22.0026 69.0777 30.9558 65.0642C48.8554 57.0402 73.7939 52 101.5 52C129.206 52 154.145 57.0402 172.044 65.0642C180.997 69.0777 188.059 73.7789 192.842 78.8482C197.61 83.9014 200 89.185 200 94.5Z" fill="#FFC738" stroke="black" stroke-width="6"/>
<path d="M188.65 110.774C187.397 112.841 185.179 115.304 181.809 117.916C177.728 121.079 172.096 124.351 164.833 127.308C150.311 133.219 129.389 137.818 101.629 137.818C78.6672 137.818 57.0773 133.557 40.9095 127.767C32.8201 124.87 26.1666 121.619 21.4005 118.383C17.1779 115.517 14.7999 112.907 13.8892 110.847C23.2279 97.2617 37.3478 89.0269 53.5951 84.1703C70.2561 79.19 88.977 77.8184 106.629 77.8184C148.873 77.8184 174.431 93.7141 188.65 110.774Z" fill="#FFDF38" stroke="black" stroke-width="5"/>
<path d="M82.7393 203C97.4673 192.881 135.515 181.497 170.289 187.821" stroke="black" stroke-width="5" stroke-linecap="round"/>
<ellipse cx="60.6113" cy="188" rx="3.84834" ry="4" fill="black"/>
<ellipse cx="181.834" cy="170" rx="3.84834" ry="4" fill="black"/>
<path d="M103.199 108C103.199 103.203 106.006 98.2515 106.872 93.4928C109.784 77.4979 109.262 60.4917 107.938 44.413C107.377 37.5849 109.543 30 100 30" stroke="black" stroke-width="5" stroke-linecap="round"/>
<path d="M91.4266 3.65724C97.2243 2.60266 113.371 2.02707 118.878 8.35139C125.517 7.2011 132.914 7.74932 137.531 8.53059C138.092 8.62546 150.807 12.7584 147.038 13.8777C142.651 15.1806 139.085 18.0083 134.796 19.7664C129.529 21.9253 124.514 23.7388 119.309 24.8703C130.279 25.5904 141.829 27.9068 141.829 34.048C141.829 39.8394 132.114 38.3122 128.675 38.3122H106.716C108.219 38.4387 109.278 38.7781 108.358 39.5982C104.733 42.8275 102.006 48.0949 98.4594 51.7139C93.9162 56.3502 77.3608 67.4006 77.3608 53.4737C77.3608 43.443 89.8005 36.2531 96.6361 31.1375C102.023 27.1064 98.3523 30.2063 94.7476 31.6113C86.6375 34.7725 76.8549 36.913 68.2442 37.0938C66.7685 37.1248 52.6592 36.5521 53.0063 36.1462C54.9376 33.8879 58.1874 32.7991 60.4299 30.9344C65.7881 26.4789 74.1946 23.2846 82.2417 20.9413C78.3877 20.3567 74.6101 18.9962 72.0211 16.3821C63.7346 8.0151 87.7093 4.3334 91.4266 3.65724Z" fill="#33C4BB"/>
<path d="M100.804 21.2554C104.636 21.2554 120.459 18.7321 120.73 13.9454C121.418 1.78584 98.5689 2.35807 91.4266 3.65724C87.7093 4.3334 63.7346 8.0151 72.0211 16.3821C76.4371 20.841 84.3113 21.6525 90.1242 21.1878C92.193 21.0223 99.367 16.6839 94.8128 17.7358C84.5543 20.1053 68.7856 23.9864 60.4299 30.9344C58.1874 32.7991 54.9376 33.8879 53.0063 36.1462C52.6592 36.5521 66.7685 37.1248 68.2442 37.0938C76.8549 36.913 86.6375 34.7725 94.7476 31.6113C98.3523 30.2063 102.023 27.1064 96.6361 31.1375C89.8005 36.2531 77.3608 43.443 77.3608 53.4737C77.3608 67.4006 93.9162 56.3502 98.4594 51.7139C102.006 48.0949 104.733 42.8275 108.358 39.5982C110.374 37.8019 102.895 38.3122 102.041 38.3122C95.55 38.3122 104.884 38.3122 106.664 38.3122C114.001 38.3122 121.338 38.3122 128.675 38.3122C132.114 38.3122 141.829 39.8394 141.829 34.048C141.829 23.4251 107.269 24.2465 100.934 24.9781C95.8813 25.5617 106.864 26.1288 107.837 26.1288C117.553 26.1288 125.808 23.4506 134.796 19.7664C139.085 18.0083 142.651 15.1806 147.038 13.8777C150.807 12.7584 138.092 8.62546 137.531 8.53059C128.836 7.05937 110.287 6.41459 105.492 16.3821" stroke="black" stroke-width="5" stroke-linecap="round"/>
</svg>
