<svg width="203" height="303" viewBox="0 0 203 303" fill="none" xmlns="http://www.w3.org/2000/svg">
<path d="M2.5 115.033H200.5V212.533C200.5 260.858 161.325 300.033 113 300.033H90C41.6751 300.033 2.5 260.858 2.5 212.533V115.033Z" fill="#FFB5F8" stroke="black" stroke-width="5"/>
<path d="M200 116.033C200 121.348 197.61 126.632 192.842 131.685C188.059 136.754 180.997 141.456 172.044 145.469C154.145 153.493 129.206 158.533 101.5 158.533C73.7939 158.533 48.8554 153.493 30.9558 145.469C22.0026 141.456 14.9414 136.754 10.1584 131.685C5.39047 126.632 3 121.348 3 116.033C3 110.718 5.39047 105.435 10.1584 100.381C14.9414 95.3121 22.0026 90.6109 30.9558 86.5974C48.8554 78.5734 73.7939 73.5332 101.5 73.5332C129.206 73.5332 154.145 78.5734 172.044 86.5974C180.997 90.6109 188.059 95.3121 192.842 100.381C197.61 105.435 200 110.718 200 116.033Z" fill="#FFC738" stroke="black" stroke-width="6"/>
<path d="M82.7393 224.533C97.4673 214.414 135.515 203.03 170.289 209.355" stroke="black" stroke-width="5" stroke-linecap="round"/>
<ellipse cx="60.6113" cy="209.533" rx="3.84834" ry="4" fill="black"/>
<ellipse cx="181.834" cy="191.533" rx="3.84834" ry="4" fill="black"/>
<path d="M104.199 119C104.199 114.08 107.006 109.001 107.872 104.121C110.784 87.7158 110.262 70.2736 108.938 53.7826C108.377 46.7794 110.543 39 101 39" stroke="black" stroke-width="5" stroke-linecap="round"/>
<path d="M92.4266 3.65724C98.2243 2.60266 114.371 2.02707 119.878 8.35139C126.517 7.2011 133.914 7.74932 138.531 8.53059C139.092 8.62546 151.807 12.7584 148.038 13.8777C143.651 15.1806 140.085 18.0083 135.796 19.7664C130.529 21.9253 125.514 23.7388 120.309 24.8703C131.279 25.5904 142.829 27.9068 142.829 34.048C142.829 39.8394 133.114 38.3122 129.675 38.3122H107.716C109.219 38.4387 110.278 38.7781 109.358 39.5982C105.733 42.8275 103.006 48.0949 99.4594 51.7139C94.9162 56.3502 78.3608 67.4006 78.3608 53.4737C78.3608 43.443 90.8005 36.2531 97.6361 31.1375C103.023 27.1064 99.3523 30.2063 95.7476 31.6113C87.6375 34.7725 77.8549 36.913 69.2442 37.0938C67.7685 37.1248 53.6592 36.5521 54.0063 36.1462C55.9376 33.8879 59.1874 32.7991 61.4299 30.9344C66.7881 26.4789 75.1946 23.2846 83.2417 20.9413C79.3877 20.3567 75.6101 18.9962 73.0211 16.3821C64.7346 8.0151 88.7093 4.3334 92.4266 3.65724Z" fill="#33C4BB"/>
<path d="M101.804 21.2554C105.636 21.2554 121.459 18.7321 121.73 13.9454C122.418 1.78584 99.5689 2.35807 92.4266 3.65724C88.7093 4.3334 64.7346 8.0151 73.0211 16.3821C77.4371 20.841 85.3113 21.6525 91.1242 21.1878C93.193 21.0223 100.367 16.6839 95.8128 17.7358C85.5543 20.1053 69.7856 23.9864 61.4299 30.9344C59.1874 32.7991 55.9376 33.8879 54.0063 36.1462C53.6592 36.5521 67.7685 37.1248 69.2442 37.0938C77.8549 36.913 87.6375 34.7725 95.7476 31.6113C99.3523 30.2063 103.023 27.1064 97.6361 31.1375C90.8005 36.2531 78.3608 43.443 78.3608 53.4737C78.3608 67.4006 94.9162 56.3502 99.4594 51.7139C103.006 48.0949 105.733 42.8275 109.358 39.5982C111.374 37.8019 103.895 38.3122 103.041 38.3122C96.55 38.3122 105.884 38.3122 107.664 38.3122C115.001 38.3122 122.338 38.3122 129.675 38.3122C133.114 38.3122 142.829 39.8394 142.829 34.048C142.829 23.4251 108.269 24.2465 101.934 24.9781C96.8813 25.5617 107.864 26.1288 108.837 26.1288C118.553 26.1288 126.808 23.4506 135.796 19.7664C140.085 18.0083 143.651 15.1806 148.038 13.8777C151.807 12.7584 139.092 8.62546 138.531 8.53059C129.836 7.05937 111.287 6.41459 106.492 16.3821" stroke="black" stroke-width="5" stroke-linecap="round"/>
</svg>
