<svg width="203" height="324" viewBox="0 0 203 324" fill="none" xmlns="http://www.w3.org/2000/svg">
<path d="M2.5 136.034H200.5V233.534C200.5 281.859 161.325 321.034 113 321.034H90C41.6751 321.034 2.5 281.859 2.5 233.534V136.034Z" fill="#FFB5F8" stroke="black" stroke-width="5"/>
<path d="M200 137.034C200 142.349 197.61 147.632 192.842 152.686C188.059 157.755 180.997 162.456 172.044 166.47C154.145 174.493 129.206 179.534 101.5 179.534C73.7939 179.534 48.8554 174.493 30.9558 166.47C22.0026 162.456 14.9414 157.755 10.1584 152.686C5.39047 147.632 3 142.349 3 137.034C3 131.719 5.39047 126.435 10.1584 121.382C14.9414 116.313 22.0026 111.611 30.9558 107.598C48.8554 99.5739 73.7939 94.5337 101.5 94.5337C129.206 94.5337 154.145 99.5739 172.044 107.598C180.997 111.611 188.059 116.313 192.842 121.382C197.61 126.435 200 131.719 200 137.034Z" fill="#FFC738" stroke="black" stroke-width="6"/>
<path d="M82.7393 245.534C97.4673 235.415 135.515 224.031 170.289 230.355" stroke="black" stroke-width="5" stroke-linecap="round"/>
<ellipse cx="60.6113" cy="230.534" rx="3.84834" ry="4" fill="black"/>
<ellipse cx="181.834" cy="212.534" rx="3.84834" ry="4" fill="black"/>
<path d="M104.028 139.595C104.028 133.019 106.971 126.233 107.879 119.711C110.932 97.7888 110.384 74.4804 108.997 52.4433C108.408 43.0847 110.68 32.689 100.675 32.689" stroke="black" stroke-width="5" stroke-linecap="round"/>
<path d="M90.1981 3.65724C95.9957 2.60266 112.143 2.02707 117.649 8.35139C124.289 7.2011 131.685 7.74932 136.302 8.53059C136.863 8.62546 149.579 12.7584 145.81 13.8777C141.423 15.1806 137.856 18.0083 133.567 19.7664C128.301 21.9253 123.285 23.7388 118.08 24.8703C129.05 25.5904 140.6 27.9068 140.6 34.048C140.6 39.8394 130.885 38.3122 127.446 38.3122H105.487C106.991 38.4387 108.05 38.7781 107.129 39.5982C103.504 42.8275 100.777 48.0949 97.2309 51.7139C92.6877 56.3502 76.1323 67.4006 76.1323 53.4737C76.1323 43.443 88.5719 36.2531 95.4076 31.1375C100.794 27.1064 97.1237 30.2063 93.5191 31.6113C85.409 34.7725 75.6264 36.913 67.0157 37.0938C65.54 37.1248 51.4307 36.5521 51.7778 36.1462C53.7091 33.8879 56.9589 32.7991 59.2014 30.9344C64.5596 26.4789 72.9661 23.2846 81.0132 20.9413C77.1591 20.3567 73.3815 18.9962 70.7926 16.3821C62.506 8.0151 86.4808 4.3334 90.1981 3.65724Z" fill="#33C4BB"/>
<path d="M99.5752 21.2554C103.408 21.2554 119.231 18.7321 119.502 13.9454C120.19 1.78584 97.3404 2.35807 90.1981 3.65724C86.4808 4.3334 62.506 8.0151 70.7926 16.3821C75.2086 20.841 83.0828 21.6525 88.8957 21.1878C90.9644 21.0223 98.1384 16.6839 93.5842 17.7358C83.3258 20.1053 67.5571 23.9864 59.2014 30.9344C56.9589 32.7991 53.7091 33.8879 51.7778 36.1462C51.4307 36.5521 65.54 37.1248 67.0157 37.0938C75.6264 36.913 85.409 34.7725 93.5191 31.6113C97.1237 30.2063 100.794 27.1064 95.4076 31.1375C88.5719 36.2531 76.1323 43.443 76.1323 53.4737C76.1323 67.4006 92.6877 56.3502 97.2309 51.7139C100.777 48.0949 103.504 42.8275 107.129 39.5982C109.145 37.8019 101.667 38.3122 100.812 38.3122C94.3214 38.3122 103.655 38.3122 105.436 38.3122C112.773 38.3122 120.109 38.3122 127.446 38.3122C130.885 38.3122 140.6 39.8394 140.6 34.048C140.6 23.4251 106.041 24.2465 99.7054 24.9781C94.6527 25.5617 105.635 26.1288 106.608 26.1288C116.325 26.1288 124.58 23.4506 133.567 19.7664C137.856 18.0083 141.423 15.1806 145.81 13.8777C149.579 12.7584 136.863 8.62546 136.302 8.53059C127.608 7.05937 109.059 6.41459 104.264 16.3821" stroke="black" stroke-width="5" stroke-linecap="round"/>
</svg>
