<svg width="267" height="346" viewBox="0 0 267 346" fill="none" xmlns="http://www.w3.org/2000/svg">
<path d="M36.3708 158.183H234.371V255.683C234.371 304.008 195.196 343.183 146.871 343.183H123.871C75.5459 343.183 36.3708 304.008 36.3708 255.683V158.183Z" fill="#FFB5F8" stroke="black" stroke-width="5"/>
<path d="M233.871 159.183C233.871 164.498 231.48 169.781 226.712 174.834C221.929 179.904 214.868 184.605 205.915 188.618C188.015 196.642 163.077 201.683 135.371 201.683C107.665 201.683 82.7263 196.642 64.8267 188.618C55.8735 184.605 48.8123 179.904 44.0293 174.834C39.2613 169.781 36.8708 164.498 36.8708 159.183C36.8708 153.868 39.2613 148.584 44.0293 143.531C48.8123 138.462 55.8735 133.76 64.8267 129.747C82.7263 121.723 107.665 116.683 135.371 116.683C163.077 116.683 188.015 121.723 205.915 129.747C214.868 133.76 221.929 138.462 226.712 143.531C231.48 148.584 233.871 153.868 233.871 159.183Z" fill="#FFC738" stroke="black" stroke-width="6"/>
<path d="M116.61 267.683C131.338 257.564 169.385 246.18 204.16 252.504" stroke="black" stroke-width="5" stroke-linecap="round"/>
<ellipse cx="94.4821" cy="252.683" rx="3.84834" ry="4" fill="black"/>
<ellipse cx="215.705" cy="234.683" rx="3.84834" ry="4" fill="black"/>
<path d="M137.899 161.743C137.899 155.168 140.842 148.382 141.75 141.86C144.803 119.938 144.255 96.6294 142.868 74.5922C142.279 65.2337 144.55 54.8379 134.545 54.8379" stroke="black" stroke-width="5" stroke-linecap="round"/>
<path d="M85.7691 12.9566C107.138 15.8232 136.453 33.5596 138.722 57.0058C99.4023 57.0058 56.2255 68.0019 22.2727 42.2446C16.0466 37.5213 8.64518 31.0593 4.2313 24.5547C1.43759 20.4376 3.90924 21.6752 6.57434 23.7346C18.6504 33.0661 31.9311 28.4275 45.1173 24.3204C52.0745 22.1534 55.5175 17.6116 61.5186 14.011C68.4933 9.82615 78.1852 11.9393 85.7691 12.9566Z" fill="#33C4BB" stroke="black" stroke-width="5" stroke-linecap="round"/>
<path d="M149.687 29.7808C146.012 37.9215 140.406 47.1342 139.583 56.1891C145.207 50.5644 158.849 51.1202 166.68 51.0223C180.702 50.847 194.737 51.0223 208.761 51.0223C222.058 51.0223 234.161 51.8517 244.584 42.6405C249.075 38.6717 264.395 29.0218 263.587 21.7436C263.359 19.6907 260.62 24.6885 258.822 25.7048C253.229 28.866 249.462 30.4446 242.919 30.3549C227.264 30.1405 212.4 23.6317 200.092 14.3378C190.537 7.12261 180.131 -1.4452 167.484 5.66898C159.01 10.4352 153.505 21.3215 149.687 29.7808Z" fill="#33C4BB" stroke="black" stroke-width="5" stroke-linecap="round"/>
<path d="M164.154 45.8553C149.371 42.6485 137.871 44.1479 125.116 46.8886C117.47 50.1656 117.186 58.0658 120.408 65.4319C123.834 73.263 128.333 73.2103 136.024 75.3637C147.919 78.6943 149.197 87.6145 156.346 96.4903C159.413 100.297 166.477 102.095 170.814 103.953C174.249 105.426 179.36 108.891 183.214 108.891C187.348 108.891 180.761 105.479 179.884 104.7C176.517 101.707 175.751 99.275 175.751 94.9402C175.751 91.0217 177.573 87.8951 177.76 83.9751C178.111 76.5956 177.866 69.1731 176.784 61.8725C175.696 54.5275 172.871 48.6479 164.154 45.8553Z" fill="#33C4BB" stroke="black" stroke-width="5" stroke-linecap="round"/>
<path d="M69.9241 61.6322C70.7897 59.0353 74.1239 55.343 74.4099 52.7686C76.938 52.7686 76.4503 54.3983 77.5717 56.4167C78.5165 58.1173 80.0783 59.7479 81.7063 60.7945C83.7521 62.1097 85.5976 64.4543 85.5976 66.8748C85.5976 69.163 84.1726 70.0445 82.1927 71.1445C79.0882 72.8692 71.1345 72.0708 70.0051 68.1179C69.4497 66.1739 69.2191 63.7471 69.9241 61.6322Z" fill="#2CE6FF" stroke="black" stroke-width="3" stroke-linecap="round" stroke-linejoin="round"/>
<path d="M197.071 24.5285C196.567 25.2849 197.187 25.3302 197.071 26.331C198.951 28.236 198.169 28.0712 200.66 28.7781C204.782 29.9476 208.167 32.1484 212.64 32.1484C215.638 32.1484 219.234 31.4741 221.165 28.9246C222.032 27.7804 225.031 26.3164 223.386 24.73C219.149 20.6416 213.222 16.0475 206.811 17.3848C204.276 17.9136 202.694 17.9865 200.812 19.8026C199.327 21.235 198.2 22.834 197.071 24.5285Z" fill="#2CE6FF" stroke="black" stroke-width="3" stroke-linecap="round"/>
</svg>
