<svg width="204" height="233" viewBox="0 0 204 233" fill="none" xmlns="http://www.w3.org/2000/svg">
<path d="M3.37085 45.1826H201.371V142.683C201.371 191.008 162.196 230.183 113.871 230.183H90.8709C42.5459 230.183 3.37085 191.008 3.37085 142.683V45.1826Z" fill="#FFB5F8" stroke="black" stroke-width="5"/>
<path d="M200.871 46.1826C200.871 51.4976 198.48 56.7812 193.712 61.8344C188.929 66.9037 181.868 71.6049 172.915 75.6184C155.015 83.6424 130.077 88.6826 102.371 88.6826C74.6648 88.6826 49.7263 83.6424 31.8267 75.6184C22.8735 71.6049 15.8123 66.9037 11.0293 61.8344C6.26131 56.7812 3.87085 51.4976 3.87085 46.1826C3.87085 40.8677 6.26131 35.5841 11.0293 30.5308C15.8123 25.4616 22.8735 20.7603 31.8267 16.7468C49.7263 8.72283 74.6648 3.68262 102.371 3.68262C130.077 3.68262 155.015 8.72283 172.915 16.7468C181.868 20.7603 188.929 25.4616 193.712 30.5308C198.48 35.5841 200.871 40.8677 200.871 46.1826Z" fill="#FFC738" stroke="black" stroke-width="6"/>
<path d="M83.6101 154.683C98.3381 144.564 136.385 133.18 171.16 139.504" stroke="black" stroke-width="5" stroke-linecap="round"/>
<ellipse cx="61.4821" cy="139.683" rx="3.84834" ry="4" fill="black"/>
<ellipse cx="182.705" cy="121.683" rx="3.84834" ry="4" fill="black"/>
</svg>
