<svg width="377" height="376" viewBox="0 0 377 376" fill="none" xmlns="http://www.w3.org/2000/svg">
<path d="M85.8151 43.884V41.6484" stroke="black" stroke-width="5" stroke-linecap="round"/>
<path d="M155.117 142.249C158.04 142.249 158.406 142.12 159.589 144.484" stroke="black" stroke-width="5" stroke-linecap="round"/>
<path d="M52.2817 59.5332C53.5762 72.4781 67.592 90.5527 74.6373 101.512C80.7341 110.996 85.8699 127.317 94.7573 134.3C108.867 145.386 125.279 160.133 143.94 160.133" stroke="black" stroke-width="5" stroke-linecap="round"/>
<path d="M342.836 61.7446C342.836 72.312 346.301 88.2311 337.738 96.2039C333.359 100.28 314.995 101.728 327.013 104.819C333.861 106.58 342.531 110.824 342.836 119.06C342.947 122.039 341.526 136.711 344.419 128.202C348.961 114.842 356.784 100.931 368.153 92.1602C375.582 86.4296 376.374 90.7014 368.153 87.4133C361.199 84.6314 356.753 84.0954 352.33 77.2162C349.118 72.2199 347.543 66.4309 344.419 61.7446" stroke="black" stroke-width="5" stroke-linecap="round"/>
<path d="M12.0416 34.9417C47.6775 23.8055 84.0923 11.798 121.211 7.24564C157.206 2.83116 205.186 -3.64066 235.473 20.4106C270.893 48.5384 265.196 98.9879 235.473 128.711C220.674 143.511 202.02 155.278 184.676 166.84C167.857 178.053 149.125 190.883 128.787 194.163C120.367 195.521 108.634 198.679 100.967 193.666C96.2202 190.563 90.1678 179.011 84.0763 179.011C81.761 179.011 86.6769 191.843 87.057 192.549C94.2043 205.822 108.288 215.663 120.715 223.846C136.808 234.445 152.383 244.936 167.289 257.131C171.033 260.195 176.436 257.403 180.702 258.622C185.746 260.063 189.001 272.738 191.01 276.506C196.331 286.482 203.194 303.963 212.124 310.909C222.941 319.322 243.873 290.037 249.135 284.082C258.301 273.71 277.412 263.617 272.36 249.183C264.963 228.05 266.649 201.164 266.895 179.011C267.043 165.681 268.73 154.975 282.047 150.694C300.56 144.743 305.382 162.302 308.874 178.017C311.495 189.814 309.845 205.727 306.638 217.016C306.132 218.799 296.125 255.171 296.951 255.268C304.254 256.128 349.611 243.697 349.611 256.262C349.611 264.79 349.611 273.318 349.611 281.847C349.611 291.005 339.313 291.365 331.726 293.025C319.217 295.761 287.015 301.539 287.015 284.206C287.015 282.623 287.59 269.515 284.78 273.029C281.85 276.691 278.073 278.632 278.073 284.206C278.073 292.841 275.837 301.054 275.837 309.791C275.837 317.624 289.051 314.387 294.84 314.387C308.477 314.387 321.362 312.675 334.459 312.151C338.588 311.986 344.953 308.012 345.14 303.706C345.207 302.148 345.14 320.874 345.14 325.564C345.14 333.04 347.501 339.039 340.669 342.455C331.544 347.018 324.002 350.155 313.718 350.155C298.657 350.155 294.343 346.288 281.551 338.978C277.282 336.538 271.366 316.688 271.366 330.035C271.366 332.793 269.978 340.857 271.863 342.952C277.353 349.052 294.69 348.861 301.671 349.659C312.807 350.931 334.219 355.226 338.93 343.449C343.798 331.279 344.637 316.593 346.879 303.706C347.949 297.551 347.375 283.175 347.375 298.986C347.375 315.587 347.375 332.188 347.375 348.789C347.375 355.051 347.806 361.208 344.022 366.674C339.377 373.383 312.061 372.511 304.9 372.511C292.523 372.511 286.099 368.209 274.72 365.68C262.646 362.997 251.048 350.155 238.951 350.155C222.929 350.155 206.908 350.155 190.886 350.155C182.671 350.155 174.702 351.855 168.531 345.684C154.087 331.241 141.764 314.723 125.061 302.712C86.228 274.787 53.7018 242.849 3.09937 242.849" stroke="black" stroke-width="5" stroke-linecap="round"/>
</svg>
